<svg id="Capa_1" data-name="Capa 1" xmlns="http://www.w3.org/2000/svg" viewBox="0 0 420 105"><defs><style>.cls-1{fill:#a9e9d5;}.cls-2{fill:#fff;}.cls-3{fill:#b9a9e9;}.cls-4{fill:#f7ddad;}.cls-5{fill:none;stroke:#b9a9e9;stroke-linecap:round;stroke-miterlimit:10;}.cls-6{font-size:12px;fill:#c3e299;font-family:Dinomiko, Dinomiko;}.cls-7{letter-spacing:-0.01em;}.cls-8{letter-spacing:-0.05em;}.cls-9{letter-spacing:0.02em;}.cls-10{font-size:50px;fill:#eca3bd;}.cls-10,.cls-12{font-family:Kinkee, Kinkee;}.cls-11{letter-spacing:-0.04em;}.cls-12{font-size:35px;fill:#a1caf3;}.cls-13{letter-spacing:-0.02em;}.cls-14{letter-spacing:0.02em;}</style></defs><title>Mesa de trabajo 1</title><path class="cls-1" d="M53.35,99.35l-1.86,0h-.15c-9.26-1-15.57-4.11-18.75-9.21-5.27-8.43-1-20.45,2.17-29.23a72.41,72.41,0,0,0,2.37-7.34C41.24,30.94,68.8,21.77,83.06,21.77h.25a6.61,6.61,0,0,1,.89-.05c.93,0,2.49,0,3.43,0a6.7,6.7,0,0,1,.89.05c6-.07,16.3,1.74,26.15,7,7.84,4.17,17.68,11.85,20,24.78a71,71,0,0,0,2.5,7.59c1.52,4.14,3.24,8.83,3.86,13,1.49,7.73.4,13.76-3.26,17.9-7.68,8.71-24.61,7.61-41,6.53-5.25-.34-10.21-.68-14.67-.65-4.25.07-9.2.4-14,.72-5.43.36-10.59.7-14.81.7m-1.68-3.68c4.32.11,10.12-.26,16.25-.67,4.84-.32,9.84-.65,14.2-.72,4.62,0,9.63.31,15,.65,14.77,1,31.52,2.06,38-5.3,2.91-3.3,3.7-8.16,2.4-14.83l0-.09c-.56-3.84-2.21-8.36-3.68-12.34a72.2,72.2,0,0,1-2.64-8.07l0-.08c-3.7-20.5-30.09-29-42.73-28.79l-1.93,0v-.09H85.27v.06h-2.2c-12.78,0-38.7,8.54-42.35,28.79l0,.08a72.65,72.65,0,0,1-2.5,7.81c-3.05,8.52-6.85,19.13-2.52,26.06,2.56,4.09,7.94,6.62,16,7.51"/><path class="cls-1" d="M61.68,66.16a4,4,0,1,1-4-4,4,4,0,0,1,4,4"/><path class="cls-1" d="M118,66.16a4,4,0,1,1-4-4,4,4,0,0,1,4,4"/><path class="cls-1" d="M44.36,95.81a11.4,11.4,0,0,1-9.25-5.16,11.78,11.78,0,0,1-2-7.92,9,9,0,0,1,11.55-7.86,11.78,11.78,0,0,1,6.61,4.82c3.42,5,2.59,11.58-1.86,14.61a8.86,8.86,0,0,1-5,1.52M42,78.17a5.25,5.25,0,0,0-3,.89,5.56,5.56,0,0,0-2.33,4.08,8.13,8.13,0,0,0,1.44,5.46c2.29,3.36,6.41,4.57,9.19,2.68s3.18-6.16.89-9.53a8.13,8.13,0,0,0-4.54-3.34A6.4,6.4,0,0,0,42,78.17"/><path class="cls-1" d="M126.82,96.61a8.86,8.86,0,0,1-5-1.52c-4.44-3-5.28-9.57-1.86-14.61a11.78,11.78,0,0,1,6.62-4.82,9,9,0,0,1,11.55,7.86,11.79,11.79,0,0,1-2,7.92,11.4,11.4,0,0,1-9.25,5.16M123,82.55c-2.29,3.37-1.89,7.64.89,9.53s6.9.69,9.19-2.68a8.13,8.13,0,0,0,1.44-5.46,5.34,5.34,0,0,0-7-4.74A8.13,8.13,0,0,0,123,82.55"/><path class="cls-1" d="M73,89.34a7.68,7.68,0,0,1-3.59-.81,6.69,6.69,0,0,1-3.5-6,10.68,10.68,0,0,1,5.72-9.13,1.83,1.83,0,1,1,1.78,3.19,7,7,0,0,0-3.85,5.89,3.08,3.08,0,0,0,1.54,2.8c2,1.07,5.77,0,10-2.81l.07,0c.45-.27.85-.55,1.23-.8,3.86-2.63,6.28-3.1,14.81,2.85,1.6,1,3.18,1.17,4.43.31a3.66,3.66,0,0,0,1.5-3.72c-.37-1.62-2-2.75-4.53-3.16a1.83,1.83,0,1,1,.59-3.61c4.06.66,6.8,2.84,7.5,6a7.3,7.3,0,0,1-3,7.52c-2.47,1.71-5.67,1.61-8.56-.29-7.35-5.13-8.33-4.46-10.7-2.85-.41.28-.85.58-1.34.88-4.38,3-7.7,3.81-10.07,3.81"/><path class="cls-2" d="M85.91,4.22s-6,0-9.59,33.12a5.81,5.81,0,0,0,2.37,5.37c2.23,1.59,6.17,2.78,12.79.6A5.09,5.09,0,0,0,95,38.06c-.84-9.9-3.56-35.84-9.09-33.84"/><path class="cls-1" d="M84.91,46.31a12.26,12.26,0,0,1-7.28-2.12,7.63,7.63,0,0,1-3.13-7.05C77.74,7.37,83,2.81,85.54,2.42a3.56,3.56,0,0,1,2.95.46c3.78,2.42,6.58,14.2,8.34,35A6.9,6.9,0,0,1,92.06,45a22.94,22.94,0,0,1-7.14,1.27M86.22,6c-.68.48-5.16,4.64-8.08,31.49a4,4,0,0,0,1.62,3.68c2.53,1.8,6.39,1.92,11.16.36a3.26,3.26,0,0,0,2.26-3.36c-2.11-25-5.49-31.71-6.67-32.27Zm-.27,0h0"/><path class="cls-1" d="M79.14,25.13l-1.76-3.2c.08,0,8.32-4.62,12.87-9.46L92.91,15C88,20.24,79.5,24.93,79.14,25.13"/><path class="cls-1" d="M77.23,41.79l-1.66-3.26c.11-.06,11-5.71,16.17-15.83L95,24.35C89.31,35.56,77.72,41.54,77.23,41.79"/><path class="cls-1" d="M49.56,37a4.55,4.55,0,0,1-1.47-.25,4.48,4.48,0,0,1-2.62-2.34c-9.73-20.47-1.89-27.84,2-30.07a10,10,0,0,1,8.43-.66c5.48,2,9.91,8.45,13.15,19.18.92,3-1.46,4.23-2.89,4.95l-8.79,4.57L51.6,36.46a4.52,4.52,0,0,1-2,.49M52.33,6.66a6,6,0,0,0-3,.74l-.09.05c-3,1.7-9,7.59-.51,25.35a.87.87,0,0,0,1.09.44l5.68-4.08,9-4.66a10.35,10.35,0,0,0,1-.58v-.05C61.92,12,57.6,8.16,54.62,7.07a6.65,6.65,0,0,0-2.29-.41"/><path class="cls-1" d="M61.05,30.49A1.83,1.83,0,0,1,59.26,29C57.65,21.22,54.78,15,53.39,14.81c-.91-.1-1.58,0-1.84.29a2.74,2.74,0,0,0-.17,2,1.83,1.83,0,0,1-3.53.93c-.09-.33-.8-3.26.94-5.28.76-.88,2.25-1.86,5-1.54,1.7.2,6,2.26,9,17.11a1.83,1.83,0,0,1-1.42,2.16,1.85,1.85,0,0,1-.37,0"/><path class="cls-1" d="M122.76,37.78a4.52,4.52,0,0,1-2-.49l-.25-.15-5.49-4-8.75-4.55c-1.47-.74-3.85-1.94-2.93-5C106.54,12.92,111,6.47,116.45,4.47a10,10,0,0,1,8.43.66c3.86,2.23,11.7,9.6,2,30.07a4.48,4.48,0,0,1-2.62,2.34,4.55,4.55,0,0,1-1.47.25m-.3-3.71a.88.88,0,0,0,.59,0,.86.86,0,0,0,.5-.45C132,15.87,126,10,123,8.28l-.09-.05a6.31,6.31,0,0,0-5.32-.3c-3,1.12-7.25,4.93-10.83,16.78v.05a10.24,10.24,0,0,0,1,.58l.08,0L117,30.13Z"/><path class="cls-1" d="M111.6,29.85a1.86,1.86,0,0,1-.37,0,1.83,1.83,0,0,1-1.42-2.16c.72-3.52,3.46-15,8.7-15.64,2.78-.32,4.27.66,5,1.54,1.74,2,1,4.95.94,5.28a1.83,1.83,0,0,1-3.53-.93,2.73,2.73,0,0,0-.17-2c-.26-.29-.93-.4-1.84-.29-1.57.18-4.21,6.26-5.54,12.74a1.83,1.83,0,0,1-1.79,1.46"/><path class="cls-3" d="M27.24,58.62a1.46,1.46,0,0,1-.67-.16L13,51.47a1.46,1.46,0,0,1,1.34-2.6l13.58,7a1.46,1.46,0,0,1-.67,2.76"/><path class="cls-3" d="M24,73.44a1.47,1.47,0,0,1-.32,0l-9.88-2.19a1.46,1.46,0,0,1,.63-2.85l9.88,2.19A1.46,1.46,0,0,1,24,73.44"/><path class="cls-3" d="M19,103.07a1.46,1.46,0,0,1-.7-2.75L29.83,94a1.46,1.46,0,0,1,1.4,2.57l-11.52,6.28a1.46,1.46,0,0,1-.7.18"/><path class="cls-4" d="M163.85,20.32l-.92,13.11A3,3,0,0,0,164,36l10.28,8.19a3,3,0,0,1-1.14,5.21l-12.76,3.17a3,3,0,0,0-2.07,1.84L153.74,66.7a3,3,0,0,1-5.31.53l-7-11.15a3,3,0,0,0-2.39-1.4l-13.13-.59a3,3,0,0,1-2.14-4.89l8.45-10.07a3,3,0,0,0,.59-2.71l-3.5-12.67a3,3,0,0,1,4-3.55l12.19,4.93a3,3,0,0,0,2.76-.28l11-7.24a3,3,0,0,1,4.61,2.69"/><path class="cls-3" d="M143.93,15.94l1.22,2.34a.6.6,0,0,0,.46.32l2.62.32a.6.6,0,0,1,.35,1l-1.85,1.89a.6.6,0,0,0-.16.53l.51,2.59a.6.6,0,0,1-.85.65l-2.37-1.18a.6.6,0,0,0-.56,0L141,25.71a.6.6,0,0,1-.88-.61l.39-2.61a.6.6,0,0,0-.18-.53l-1.93-1.8a.6.6,0,0,1,.31-1l2.6-.44a.6.6,0,0,0,.44-.34L142.85,16a.6.6,0,0,1,1.07,0"/><path class="cls-3" d="M157.33,59.27l.39,2.15a.5.5,0,0,0,.29.36l2,.9a.5.5,0,0,1,0,.89l-1.93,1a.5.5,0,0,0-.26.38l-.23,2.18a.49.49,0,0,1-.83.31L155.2,66a.5.5,0,0,0-.44-.13l-2.14.45a.5.5,0,0,1-.55-.7l.95-2a.5.5,0,0,0,0-.46l-1.09-1.9a.49.49,0,0,1,.49-.74l2.17.29a.5.5,0,0,0,.43-.16L156.47,59a.5.5,0,0,1,.85.24"/><path class="cls-3" d="M143.91,35.49a2.86,2.86,0,1,1-2.44-3.23,2.86,2.86,0,0,1,2.44,3.23"/><path class="cls-3" d="M159.36,44.52A2.81,2.81,0,1,1,157,41.35a2.81,2.81,0,0,1,2.39,3.17"/><path class="cls-5" d="M145,39.67s-.16,2.92.9,3.68a3.37,3.37,0,0,0,4.38-.11"/><text class="cls-6" transform="translate(321.69 99.35)"><tspan class="cls-7">C</tspan><tspan class="cls-8" x="5.53" y="0">r</tspan><tspan class="cls-9" x="9.83" y="0">e</tspan><tspan x="14.74" y="0">ate your own!</tspan></text><text class="cls-10" transform="matrix(0.98, -0.18, 0.18, 0.98, 209.95, 59.2)"><tspan class="cls-11">K</tspan><tspan x="30.15" y="0">awaii</tspan></text><text class="cls-12" transform="translate(175.44 85.97)">pro<tspan class="cls-13" x="58.73" y="0">f</tspan><tspan class="cls-14" x="73.25" y="0">i</tspan><tspan x="84.59" y="0">le-cards!</tspan></text></svg>